<?xml version="1.0" encoding="UTF-8"?>
<svg width="84px" height="97px" viewBox="0 0 84 97" version="1.1" xmlns="http://www.w3.org/2000/svg" xmlns:xlink="http://www.w3.org/1999/xlink">
    <!-- Generator: Sketch 46.2 (44496) - http://www.bohemiancoding.com/sketch -->
    <title>Page 1 Copy</title>
    <desc>Created with Sketch.</desc>
    <defs></defs>
    <g id="Work-with-us-single-confirmación" stroke="none" stroke-width="1" fill="none" fill-rule="evenodd">
        <g id="Tablet-Portrait" transform="translate(-343.000000, -2397.000000)">
            <g id="Page-1-Copy" transform="translate(343.000000, 2397.000000)">
                <path d="M48.092,66.1438 L34.963,66.1438 L15.272,47.3898 L15.27,33.3218 L7.065,33.3218 C3.439,33.3218 0.5,36.2608 0.5,39.8858 L0.5,53.0148 L0.5,89.1198 C0.5,92.7448 3.439,95.6838 7.065,95.6838 L75.99,95.6838 C79.615,95.6838 82.555,92.7448 82.555,89.1198 L82.555,39.8858 C82.555,36.2608 79.615,33.3218 75.99,33.3218 L67.784,33.3218 L67.784,47.3878 L48.092,66.1438 Z" id="Fill-1" fill="#F3F3F3"></path>
                <path d="M48.092,66.1438 L34.963,66.1438 L15.272,47.3898 L15.27,33.3218 L7.065,33.3218 C3.439,33.3218 0.5,36.2608 0.5,39.8858 L0.5,53.0148 L0.5,89.1198 C0.5,92.7448 3.439,95.6838 7.065,95.6838 L75.99,95.6838 C79.615,95.6838 82.555,92.7448 82.555,89.1198 L82.555,39.8858 C82.555,36.2608 79.615,33.3218 75.99,33.3218 L67.784,33.3218 L67.784,47.3878 L48.092,66.1438 Z" id="Stroke-3" stroke="#909294" stroke-linecap="round" stroke-linejoin="round"></path>
                <path d="M55.2991,7.0647 L53.5101,5.3397 C50.2691,2.2337 45.9531,0.5007 41.4641,0.5007 C36.8471,0.5007 32.4181,2.3347 29.1531,5.5987 L27.6391,7.0647 L55.2991,7.0647 Z" id="Fill-5" fill="#F3F3F3"></path>
                <path d="M55.2991,7.0647 L53.5101,5.3397 C50.2691,2.2337 45.9531,0.5007 41.4641,0.5007 C36.8471,0.5007 32.4181,2.3347 29.1531,5.5987 L27.6391,7.0647 L55.2991,7.0647 Z" id="Stroke-7" stroke="#909294" stroke-linecap="round" stroke-linejoin="round"></path>
                <polygon id="Fill-9" fill="#FFFFFF" points="48.092 66.1438 34.963 66.1438 15.27 47.3878 15.27 7.0648 67.784 7.0648 67.784 47.3878"></polygon>
                <polygon id="Stroke-11" stroke="#909294" stroke-linecap="round" stroke-linejoin="round" points="48.092 66.1438 34.963 66.1438 15.27 47.3878 15.27 7.0648 67.784 7.0648 67.784 47.3878"></polygon>
                <path d="M30.0393,15.2697 L53.0153,15.2697" id="Stroke-13" stroke="#00BACE" stroke-width="0.584" stroke-linecap="round" stroke-linejoin="round" stroke-dasharray="1.167,2.334"></path>
                <path d="M21.8342,25.1164 L33.3212,25.1164" id="Stroke-15" stroke="#00BACE" stroke-width="0.584" stroke-linecap="round" stroke-linejoin="round" stroke-dasharray="1.167,2.334"></path>
                <path d="M38.9827,25.1164 L61.2207,25.1164" id="Stroke-17" stroke="#00BACE" stroke-width="0.584" stroke-linecap="round" stroke-linejoin="round" stroke-dasharray="1.167,2.334"></path>
                <path d="M34.9631,31.6809 L49.7331,31.6809" id="Stroke-19" stroke="#00BACE" stroke-width="0.584" stroke-linecap="round" stroke-linejoin="round" stroke-dasharray="1.167,2.334"></path>
                <path d="M21.8342,31.6809 L28.3982,31.6809" id="Stroke-21" stroke="#00BACE" stroke-width="0.584" stroke-linecap="round" stroke-linejoin="round" stroke-dasharray="1.167,2.334"></path>
                <path d="M56.2971,31.6809 L61.2211,31.6809" id="Stroke-23" stroke="#00BACE" stroke-width="0.584" stroke-linecap="round" stroke-linejoin="round" stroke-dasharray="1.167,2.334"></path>
                <path d="M39.886,38.2453 L49.733,38.2453" id="Stroke-25" stroke="#00BACE" stroke-width="0.584" stroke-linecap="round" stroke-linejoin="round" stroke-dasharray="1.167,2.334"></path>
                <path d="M21.8342,38.2453 L33.3212,38.2453" id="Stroke-27" stroke="#00BACE" stroke-width="0.584" stroke-linecap="round" stroke-linejoin="round" stroke-dasharray="1.167,2.334"></path>
                <path d="M33.3215,44.8098 L41.5275,44.8098" id="Stroke-29" stroke="#00BACE" stroke-width="0.584" stroke-linecap="round" stroke-linejoin="round" stroke-dasharray="1.167,2.334"></path>
                <path d="M21.8342,44.8098 L26.7572,44.8098" id="Stroke-31" stroke="#00BACE" stroke-width="0.584" stroke-linecap="round" stroke-linejoin="round" stroke-dasharray="1.167,2.334"></path>
                <polyline id="Stroke-33" stroke="#00BACE" stroke-width="2" stroke-linecap="round" stroke-linejoin="round" points="61.2209 39.886 53.0149 51.374 48.0919 44.81"></polyline>
                <path d="M48.092,66.1438 L34.963,66.1438 L2.586,93.8958 C3.76,94.9968 5.327,95.6838 7.065,95.6838 L75.99,95.6838 C77.727,95.6838 79.295,94.9968 80.469,93.8958 L48.092,66.1438 Z" id="Fill-35" fill="#F3F3F3"></path>
                <path d="M48.092,66.1438 L34.963,66.1438 L2.586,93.8958 C3.76,94.9968 5.327,95.6838 7.065,95.6838 L75.99,95.6838 C77.727,95.6838 79.295,94.9968 80.469,93.8958 L48.092,66.1438 Z" id="Stroke-37" stroke="#909294" stroke-linecap="round" stroke-linejoin="round"></path>
                <path d="M15.2698,47.3879 L15.2698,33.3219 L7.0648,33.3219 C5.2758,33.3219 3.6588,34.0419 2.4738,35.2019 L15.2698,47.3879 Z" id="Fill-39" fill="#F3F3F3"></path>
                <path d="M15.2698,47.3879 L15.2698,33.3219 L7.0648,33.3219 C5.2758,33.3219 3.6588,34.0419 2.4738,35.2019 L15.2698,47.3879 Z" id="Stroke-41" stroke="#909294" stroke-linecap="round" stroke-linejoin="round"></path>
                <path d="M75.9905,33.3215 L67.7855,33.3215 L67.7845,33.3215 L67.7845,47.3875 L80.5805,35.2025 C79.3965,34.0425 77.7785,33.3215 75.9905,33.3215" id="Fill-43" fill="#F3F3F3"></path>
                <path d="M75.9905,33.3215 L67.7855,33.3215 L67.7845,33.3215 L67.7845,47.3875 L80.5805,35.2025 C79.3965,34.0425 77.7785,33.3215 75.9905,33.3215 Z" id="Stroke-45" stroke="#909294" stroke-linecap="round" stroke-linejoin="round"></path>
                <path d="M79.595,34.4074 L67.784,19.0934 L67.784,33.3214 L75.991,33.3214 C77.324,33.3214 78.56,33.7244 79.595,34.4074" id="Fill-47" fill="#F3F3F3"></path>
                <path d="M79.595,34.4074 L67.784,19.0934 L67.784,33.3214 L75.991,33.3214 C77.324,33.3214 78.56,33.7244 79.595,34.4074 Z" id="Stroke-49" stroke="#909294" stroke-linecap="round" stroke-linejoin="round"></path>
                <path d="M7.0647,33.3215 L15.2697,33.3215 L15.2697,19.0315 L3.4437,34.4165 C4.4817,33.7275 5.7247,33.3215 7.0647,33.3215" id="Fill-51" fill="#F3F3F3"></path>
                <path d="M7.0647,33.3215 L15.2697,33.3215 L15.2697,19.0315 L3.4437,34.4165 C4.4817,33.7275 5.7247,33.3215 7.0647,33.3215 Z" id="Stroke-53" stroke="#909294" stroke-linecap="round" stroke-linejoin="round"></path>
            </g>
        </g>
    </g>
</svg>